<svg id="Hexels SVG Export" xmlns="http://www.w3.org/2000/svg" version="1.1" xmlns:xlink="http://www.w3.org/1999/xlink" viewBox="0 -0 416 360" xml:space="preserve">
<g id="Root" transform="matrix(1.000, 0.000, 0.000, 1.000, 0.000, -0.000)">
<g id="Layer 1" transform="matrix(1.000, 0.000, 0.000, 1.000, 0.000, -0.000)">
<path d="M 69.28,39.50 L 34.14,60.00 L 69.28,80.50 L 104.42,60.00 L 69.28,39.50  z
" style="fill:#7db1fb;fill-opacity:1.00"/>
<path d="M 346.41,39.50 L 311.27,60.00 L 346.41,80.50 L 381.55,60.00 L 346.41,39.50  z
" style="fill:#7db1fb;fill-opacity:1.00"/>
<path d="M 34.15,59.91 L 34.15,260.08 L 69.71,280.25 L 69.53,200.43 L 138.13,240.25 L 138.09,320.17 L 173.69,340.10 L 173.70,139.92 L 138.13,119.75 L 138.31,199.57 L 69.71,159.75 L 69.75,79.83 L 34.15,59.91  z
" style="fill:#f3ea92;fill-opacity:1.00"/>
<path d="M 104.36,59.75 L 68.81,79.83 L 68.85,160.25 L 104.39,140.17 L 104.36,59.75  z
" style="fill:#b1acdf;fill-opacity:1.00"/>
<path d="M 311.33,59.75 L 311.30,140.17 L 346.84,160.25 L 346.88,79.83 L 311.33,59.75  z
" style="fill:#f3ea92;fill-opacity:1.00"/>
<path d="M 381.54,59.91 L 345.94,79.83 L 345.97,159.75 L 277.38,199.57 L 277.56,119.75 L 241.99,139.92 L 242.00,340.10 L 277.60,320.17 L 277.56,240.25 L 346.16,200.43 L 345.98,280.25 L 381.54,260.08 L 381.54,59.91  z
" style="fill:#b1acdf;fill-opacity:1.00"/>
<path d="M 173.20,99.50 L 138.06,120.00 L 173.20,140.50 L 208.35,120.00 L 173.20,99.50  z
" style="fill:#7db1fb;fill-opacity:1.00"/>
<path d="M 242.49,99.50 L 207.35,120.00 L 242.49,140.50 L 277.63,120.00 L 242.49,99.50  z
" style="fill:#7db1fb;fill-opacity:1.00"/>
<path d="M 208.34,119.91 L 172.71,139.92 L 172.71,340.10 L 208.34,320.08 L 208.34,119.91  z
" style="fill:#b1acdf;fill-opacity:1.00"/>
<path d="M 207.35,119.91 L 207.35,320.08 L 242.98,340.10 L 242.98,139.92 L 207.35,119.91  z
" style="fill:#f3ea92;fill-opacity:1.00"/>
<path d="M 103.92,139.50 L 68.85,160.25 L 138.57,200.50 L 139.00,159.75 L 103.92,139.50  z
" style="fill:#7db1fb;fill-opacity:1.00"/>
<path d="M 311.77,139.50 L 276.69,159.75 L 277.12,200.50 L 346.84,160.25 L 311.77,139.50  z
" style="fill:#7db1fb;fill-opacity:1.00"/>
<path d="M 68.85,199.75 L 68.85,280.25 L 104.35,260.25 L 104.35,219.75 L 68.85,199.75  z
" style="fill:#b1acdf;fill-opacity:1.00"/>
<path d="M 346.84,199.75 L 311.34,219.75 L 311.34,260.25 L 346.84,280.25 L 346.84,199.75  z
" style="fill:#f3ea92;fill-opacity:1.00"/>
</g>
</g></svg>
