<svg id="Hexels SVG Export" xmlns="http://www.w3.org/2000/svg" version="1.1" xmlns:xlink="http://www.w3.org/1999/xlink" viewBox="0 -0 242 280" xml:space="preserve">
<rect x="0.00" y="-0.00" width="242.49" height="280.00" id="Background" style="fill:#000000;stroke-width:0;stroke:rgb(0,0,0)" />
<g id="Root" transform="matrix(1.000, 0.000, 0.000, 1.000, 0.000, -0.000)">
<g id="Layer 1" transform="matrix(1.000, 0.000, 0.000, 1.000, 0.000, -0.000)">
<path d="M 34.64,19.50 L -0.50,40.00 L 34.14,60.01 L -0.50,80.01 L 34.78,100.48 L 138.94,40.33 L 103.92,19.50 L 69.28,39.50 L 34.64,19.50  z
" style="fill:#72e569;fill-opacity:1.00"/>
<path d="M -0.25,39.57 L -0.25,80.43 L 35.14,60.00 L -0.25,39.57  z
" style="fill:#c68537;fill-opacity:1.00"/>
<path d="M 138.47,39.51 L 34.29,99.64 L 34.73,140.49 L 138.91,80.36 L 138.47,39.51  z
" style="fill:#936128;fill-opacity:1.00"/>
<path d="M -0.25,79.57 L -0.43,120.25 L 34.89,140.43 L 35.07,99.75 L -0.25,79.57  z
" style="fill:#c68537;fill-opacity:1.00"/>
<path d="M 207.75,79.51 L 138.13,119.75 L 173.30,140.49 L 242.92,100.25 L 207.75,79.51  z
" style="fill:#72e569;fill-opacity:1.00"/>
<path d="M 242.49,99.50 L 172.83,139.67 L 172.77,179.75 L 138.06,200.01 L 173.20,220.50 L 208.28,200.25 L 208.28,160.25 L 242.92,140.25 L 242.49,99.50  z
" style="fill:#936128;fill-opacity:1.00"/>
<path d="M 138.31,119.57 L 138.13,160.25 L 173.45,180.43 L 173.64,139.75 L 138.31,119.57  z
" style="fill:#c68537;fill-opacity:1.00"/>
<path d="M 69.28,159.50 L 34.14,180.00 L 68.78,200.01 L 34.14,220.01 L 69.28,240.50 L 103.93,220.50 L 138.57,240.50 L 173.70,220.00 L 139.06,199.99 L 173.70,179.99 L 138.56,159.50 L 103.92,179.50 L 69.28,159.50  z
" style="fill:#72e569;fill-opacity:1.00"/>
<path d="M 34.39,179.57 L 34.39,220.43 L 69.78,200.00 L 34.39,179.57  z
" style="fill:#c68537;fill-opacity:1.00"/>
<path d="M 34.39,219.57 L 34.21,260.25 L 69.53,280.43 L 69.71,239.75 L 34.39,219.57  z
" style="fill:#c68537;fill-opacity:1.00"/>
<path d="M 104.17,219.57 L 68.85,239.75 L 69.03,280.43 L 104.36,260.25 L 104.17,219.57  z
" style="fill:#936128;fill-opacity:1.00"/>
<path d="M 103.67,219.57 L 103.49,260.25 L 138.81,280.43 L 139.00,239.75 L 103.67,219.57  z
" style="fill:#c68537;fill-opacity:1.00"/>
<path d="M 173.45,219.57 L 138.13,239.75 L 138.31,280.43 L 173.64,260.25 L 173.45,219.57  z
" style="fill:#936128;fill-opacity:1.00"/>
</g>
</g></svg>
