<svg id="Hexels SVG Export" xmlns="http://www.w3.org/2000/svg" version="1.1" xmlns:xlink="http://www.w3.org/1999/xlink" viewBox="0 -0 277 320" xml:space="preserve">
<g id="Root" transform="matrix(1.000, 0.000, 0.000, 1.000, 0.000, -0.000)">
<g id="Layer 1" transform="matrix(1.000, 0.000, 0.000, 1.000, 0.000, -0.000)">
<path d="M 34.89,19.57 L 16.89,29.75 L 22.84,40.43 L 35.07,40.25 L 34.89,19.57  z
" style="fill:#e14242;fill-opacity:1.00"/>
<path d="M 242.32,19.53 L 103.83,99.51 L 34.64,59.50 L 34.26,100.33 L 104.04,140.49 L 277.46,40.38 L 242.32,19.53  z
" style="fill:#4346ea;fill-opacity:1.00"/>
<path d="M 34.21,39.75 L 34.39,60.43 L 52.39,50.25 L 46.44,39.57 L 34.21,39.75  z
" style="fill:#e1ea42;fill-opacity:1.00"/>
<path d="M 277.29,39.53 L 103.61,139.61 L 104.06,180.48 L 242.49,100.50 L 242.11,179.67 L 103.59,259.62 L 104.08,300.47 L 277.54,200.28 L 277.29,39.53  z
" style="fill:#e1ea42;fill-opacity:1.00"/>
<path d="M 34.64,99.50 L 34.26,140.33 L 103.92,180.50 L 104.30,139.68 L 34.64,99.50  z
" style="fill:#e14242;fill-opacity:1.00"/>
<path d="M 242.92,99.75 L 207.41,119.75 L 207.41,160.25 L 242.92,180.25 L 242.92,99.75  z
" style="fill:#e14242;fill-opacity:1.00"/>
<path d="M 207.71,159.52 L 103.86,219.50 L 34.73,179.51 L -0.38,200.33 L 103.96,260.50 L 242.83,180.36 L 207.71,159.52  z
" style="fill:#4346ea;fill-opacity:1.00"/>
<path d="M 0.09,199.51 L -0.35,240.36 L 103.83,300.49 L 104.27,259.64 L 0.09,199.51  z
" style="fill:#e14242;fill-opacity:1.00"/>
</g>
</g></svg>
