<svg id="Hexels SVG Export" xmlns="http://www.w3.org/2000/svg" version="1.1" xmlns:xlink="http://www.w3.org/1999/xlink" viewBox="0 -0 277 400" xml:space="preserve">
<g id="Root" transform="matrix(1.000, 0.000, 0.000, 1.000, 0.000, -0.000)">
<g id="Layer 1 copy" transform="matrix(1.507, 0.000, 0.000, 1.507, -87.743, 69.209)">
<path d="M 138.56,39.50 L 103.49,59.75 L 103.49,100.25 L 138.57,120.50 L 173.64,100.25 L 173.64,59.75 L 138.56,39.50  z
" style="fill:#fff742;fill-opacity:1.00"/>
<path d="M 207.85,79.50 L 172.77,99.75 L 172.77,140.25 L 207.85,160.50 L 242.92,140.25 L 242.92,99.75 L 207.85,79.50  z
" style="fill:#ff8a42;fill-opacity:1.00"/>
<path d="M 138.56,119.50 L 103.49,139.75 L 103.49,180.25 L 138.57,200.50 L 173.64,180.25 L 173.64,139.75 L 138.56,119.50  z
" style="fill:#ff1242;fill-opacity:1.00"/>
</g>
<g id="Layer 1" transform="matrix(1.000, 0.000, 0.000, 1.000, -80.829, 0.000)">
<path d="M 138.56,39.50 L 103.49,59.75 L 103.49,100.25 L 138.57,120.50 L 173.64,100.25 L 173.64,59.75 L 138.56,39.50  z
" style="fill:#fff742;fill-opacity:1.00"/>
<path d="M 207.85,79.50 L 172.77,99.75 L 172.77,140.25 L 207.85,160.50 L 242.92,140.25 L 242.92,99.75 L 207.85,79.50  z
" style="fill:#ff8a42;fill-opacity:1.00"/>
<path d="M 138.56,119.50 L 103.49,139.75 L 103.49,180.25 L 138.57,200.50 L 173.64,180.25 L 173.64,139.75 L 138.56,119.50  z
" style="fill:#ff1242;fill-opacity:1.00"/>
</g>
<g id="Layer 1 copy 2" transform="matrix(0.456, 0.000, 0.000, 0.456, -38.488, -14.665)">
<path d="M 138.56,39.50 L 103.49,59.75 L 103.49,100.25 L 138.57,120.50 L 173.64,100.25 L 173.64,59.75 L 138.56,39.50  z
" style="fill:#fff742;fill-opacity:1.00"/>
<path d="M 207.85,79.50 L 172.77,99.75 L 172.77,140.25 L 207.85,160.50 L 242.92,140.25 L 242.92,99.75 L 207.85,79.50  z
" style="fill:#ff8a42;fill-opacity:1.00"/>
<path d="M 138.56,119.50 L 103.49,139.75 L 103.49,180.25 L 138.57,200.50 L 173.64,180.25 L 173.64,139.75 L 138.56,119.50  z
" style="fill:#ff1242;fill-opacity:1.00"/>
</g>
</g></svg>
