<svg id="Hexels SVG Export" xmlns="http://www.w3.org/2000/svg" version="1.1" xmlns:xlink="http://www.w3.org/1999/xlink" viewBox="0 -0 139 200" xml:space="preserve">
<g id="Root" transform="matrix(1.000, 0.000, 0.000, 1.000, 0.000, -0.000)">
<g id="Layer 1" transform="matrix(1.000, 0.000, 0.000, 1.000, 0.000, -0.000)">
<path d="M 34.64,19.50 L -0.50,40.00 L 34.14,60.01 L -0.50,80.01 L 34.64,100.50 L 69.29,80.50 L 103.93,100.50 L 139.06,80.00 L 104.42,59.99 L 139.06,39.99 L 103.92,19.50 L 69.28,39.50 L 34.64,19.50  z
" style="fill:#eded21;fill-opacity:1.00"/>
<path d="M -0.25,39.57 L -0.25,80.43 L 35.14,60.00 L -0.25,39.57  z
" style="fill:#a4a416;fill-opacity:1.00"/>
<path d="M 138.81,39.57 L 103.42,60.00 L 138.81,80.43 L 138.81,39.57  z
" style="fill:#eded8e;fill-opacity:1.00"/>
<path d="M -0.25,79.57 L -0.43,120.25 L 34.89,140.43 L 35.07,99.75 L -0.25,79.57  z
" style="fill:#a4a416;fill-opacity:1.00"/>
<path d="M 69.53,79.57 L 34.21,99.75 L 34.39,140.43 L 69.71,120.25 L 69.53,79.57  z
" style="fill:#eded8e;fill-opacity:1.00"/>
<path d="M 69.03,79.57 L 68.85,120.25 L 104.17,140.43 L 104.36,99.75 L 69.03,79.57  z
" style="fill:#a4a416;fill-opacity:1.00"/>
<path d="M 138.81,79.57 L 103.49,99.75 L 103.67,140.43 L 139.00,120.25 L 138.81,79.57  z
" style="fill:#eded8e;fill-opacity:1.00"/>
</g>
<g id="Layer 2" transform="matrix(0.504, 0.000, 0.000, 0.504, 33.743, -11.037)">
<path d="M 34.64,59.50 L -0.50,80.00 L 34.14,100.01 L -0.50,120.01 L 34.64,140.50 L 69.29,120.50 L 103.93,140.50 L 139.06,120.00 L 104.42,99.99 L 139.06,79.99 L 103.92,59.50 L 69.28,79.50 L 34.64,59.50  z
" style="fill:#aaaaaa;fill-opacity:1.00"/>
<path d="M -0.25,79.57 L -0.25,120.43 L 35.14,100.00 L -0.25,79.57  z
" style="fill:#7e7e7e;fill-opacity:1.00"/>
<path d="M 138.81,79.57 L 103.42,100.00 L 138.81,120.43 L 138.81,79.57  z
" style="fill:#d7d7d7;fill-opacity:1.00"/>
<path d="M -0.25,119.57 L -0.43,160.25 L 34.89,180.43 L 35.07,139.75 L -0.25,119.57  z
" style="fill:#7e7e7e;fill-opacity:1.00"/>
<path d="M 69.53,119.57 L 34.21,139.75 L 34.39,180.43 L 69.71,160.25 L 69.53,119.57  z
" style="fill:#d7d7d7;fill-opacity:1.00"/>
<path d="M 69.03,119.57 L 68.85,160.25 L 104.17,180.43 L 104.36,139.75 L 69.03,119.57  z
" style="fill:#7e7e7e;fill-opacity:1.00"/>
<path d="M 138.81,119.57 L 103.49,139.75 L 103.67,180.43 L 139.00,160.25 L 138.81,119.57  z
" style="fill:#d7d7d7;fill-opacity:1.00"/>
</g>
<g id="Layer 2 copy" transform="matrix(0.211, 0.000, 0.000, 0.211, 54.219, 19.274)">
<path d="M 34.64,19.50 L -0.50,40.00 L 34.14,60.01 L -0.50,80.01 L 34.64,100.50 L 69.29,80.50 L 103.93,100.50 L 139.06,80.00 L 104.42,59.99 L 139.06,39.99 L 103.92,19.50 L 69.28,39.50 L 34.64,19.50  z
" style="fill:#0cb5b8;fill-opacity:1.00"/>
<path d="M -0.25,39.57 L -0.25,80.43 L 35.14,60.00 L -0.25,39.57  z
" style="fill:#098d90;fill-opacity:1.00"/>
<path d="M 138.81,39.57 L 103.42,60.00 L 138.81,80.43 L 138.81,39.57  z
" style="fill:#85b7b8;fill-opacity:1.00"/>
<path d="M -0.25,79.57 L -0.43,120.25 L 34.89,140.43 L 35.07,99.75 L -0.25,79.57  z
" style="fill:#098d90;fill-opacity:1.00"/>
<path d="M 69.53,79.57 L 34.21,99.75 L 34.39,140.43 L 69.71,120.25 L 69.53,79.57  z
" style="fill:#85b7b8;fill-opacity:1.00"/>
<path d="M 69.03,79.57 L 68.85,120.25 L 104.17,140.43 L 104.36,99.75 L 69.03,79.57  z
" style="fill:#098d90;fill-opacity:1.00"/>
<path d="M 138.81,79.57 L 103.49,99.75 L 103.67,140.43 L 139.00,120.25 L 138.81,79.57  z
" style="fill:#85b7b8;fill-opacity:1.00"/>
</g>
</g></svg>
