<svg id="Hexels SVG Export" xmlns="http://www.w3.org/2000/svg" version="1.1" xmlns:xlink="http://www.w3.org/1999/xlink" viewBox="0 -0 485 520" xml:space="preserve">
<g id="Root" transform="matrix(1.000, 0.000, 0.000, 1.000, 0.000, -0.000)">
<g id="Layer 1" transform="matrix(1.000, 0.000, 0.000, 1.000, 0.000, -0.000)">
<path d="M 173.17,19.50 L -0.43,119.75 L -0.46,320.19 L 103.87,380.50 L 172.96,340.43 L 172.83,420.33 L 311.80,500.50 L 485.40,400.25 L 485.44,199.81 L 381.11,139.50 L 312.02,179.57 L 312.15,99.67 L 173.17,19.50  z
M 35.07,140.25 L 173.25,60.50 L 276.69,120.25 L 276.64,240.12 L 311.30,260.17 L 311.34,340.25 L 346.89,320.12 L 346.89,200.12 L 380.95,180.49 L 449.86,220.16 L 449.90,379.75 L 311.73,459.50 L 208.28,399.75 L 208.33,279.88 L 173.68,259.83 L 173.64,179.75 L 138.08,199.88 L 138.08,319.88 L 104.02,339.51 L 35.11,299.84 L 35.07,140.25  z
" style="fill:#ffffff;fill-opacity:1.00"/>
<path d="M 173.45,59.57 L 138.06,80.00 L 173.45,100.43 L 173.45,59.57  z
" style="fill:#8cffa8;fill-opacity:1.00"/>
<path d="M 172.95,59.57 L 172.95,100.43 L 208.35,80.00 L 172.95,59.57  z
" style="fill:#74ffaf;fill-opacity:1.00"/>
<path d="M 138.81,79.57 L 103.42,100.00 L 138.81,120.43 L 138.81,79.57  z
" style="fill:#a8ffa0;fill-opacity:1.00"/>
<path d="M 138.31,79.57 L 138.31,120.43 L 173.70,100.00 L 138.31,79.57  z
" style="fill:#90ffa7;fill-opacity:1.00"/>
<path d="M 208.10,79.57 L 172.70,100.00 L 208.10,120.43 L 208.10,79.57  z
" style="fill:#67ffb2;fill-opacity:1.00"/>
<path d="M 207.60,79.57 L 207.59,120.43 L 242.99,100.00 L 207.60,79.57  z
" style="fill:#50ffc3;fill-opacity:1.00"/>
<path d="M 104.17,99.57 L 68.78,120.00 L 104.17,140.43 L 104.17,99.57  z
" style="fill:#c4ff98;fill-opacity:1.00"/>
<path d="M 103.67,99.57 L 103.67,140.43 L 139.06,120.00 L 103.67,99.57  z
" style="fill:#abff9f;fill-opacity:1.00"/>
<path d="M 173.45,99.57 L 138.06,120.00 L 173.45,140.43 L 173.45,99.57  z
" style="fill:#83ffaa;fill-opacity:1.00"/>
<path d="M 172.95,99.57 L 172.95,140.43 L 208.35,120.00 L 172.95,99.57  z
" style="fill:#6bffb1;fill-opacity:1.00"/>
<path d="M 242.74,99.57 L 207.35,120.00 L 242.74,140.43 L 242.74,99.57  z
" style="fill:#41ffc3;fill-opacity:1.00"/>
<path d="M 242.01,99.84 L 242.00,219.88 L 207.41,239.75 L 207.84,280.50 L 277.59,240.20 L 277.61,119.88 L 242.01,99.84  z
" style="fill:#2dffc3;fill-opacity:1.00"/>
<path d="M 69.53,119.57 L 34.21,139.75 L 34.39,180.43 L 69.71,160.25 L 69.53,119.57  z
" style="fill:#dcff92;fill-opacity:1.00"/>
<path d="M 69.03,119.57 L 69.03,160.43 L 104.42,140.00 L 69.03,119.57  z
" style="fill:#c7ff97;fill-opacity:1.00"/>
<path d="M 138.81,119.57 L 103.42,140.00 L 138.81,160.43 L 138.81,119.57  z
" style="fill:#9fffa3;fill-opacity:1.00"/>
<path d="M 138.31,119.57 L 138.31,160.43 L 173.70,140.00 L 138.31,119.57  z
" style="fill:#86ffa9;fill-opacity:1.00"/>
<path d="M 208.10,119.57 L 172.70,140.00 L 208.10,160.43 L 208.10,119.57  z
" style="fill:#5effb5;fill-opacity:1.00"/>
<path d="M 207.60,119.57 L 207.59,160.43 L 242.99,140.00 L 207.60,119.57  z
" style="fill:#46ffc3;fill-opacity:1.00"/>
<path d="M 104.17,139.57 L 68.78,160.00 L 104.17,180.43 L 104.17,139.57  z
" style="fill:#baff9b;fill-opacity:1.00"/>
<path d="M 103.67,139.57 L 103.67,180.43 L 139.06,160.00 L 103.67,139.57  z
" style="fill:#a2ffa2;fill-opacity:1.00"/>
<path d="M 173.45,139.57 L 138.06,160.00 L 173.45,180.43 L 173.45,139.57  z
" style="fill:#7affad;fill-opacity:1.00"/>
<path d="M 172.95,139.57 L 172.95,180.43 L 208.35,160.00 L 172.95,139.57  z
" style="fill:#61ffb4;fill-opacity:1.00"/>
<path d="M 242.74,139.57 L 207.35,160.00 L 242.74,180.43 L 242.74,139.57  z
" style="fill:#36ffc3;fill-opacity:1.00"/>
<path d="M 69.53,159.57 L 34.14,180.00 L 69.53,200.43 L 69.53,159.57  z
" style="fill:#d6ff93;fill-opacity:1.00"/>
<path d="M 69.03,159.57 L 69.03,200.43 L 104.42,180.00 L 69.03,159.57  z
" style="fill:#beff9a;fill-opacity:1.00"/>
<path d="M 138.81,159.57 L 103.42,180.00 L 138.81,200.43 L 138.81,159.57  z
" style="fill:#95ffa5;fill-opacity:1.00"/>
<path d="M 138.31,159.57 L 138.31,200.43 L 173.70,180.00 L 138.31,159.57  z
" style="fill:#7dffac;fill-opacity:1.00"/>
<path d="M 208.10,159.57 L 172.70,180.00 L 208.10,200.43 L 208.10,159.57  z
" style="fill:#55ffb7;fill-opacity:1.00"/>
<path d="M 207.60,159.57 L 207.59,200.43 L 242.99,180.00 L 207.60,159.57  z
" style="fill:#3bffc3;fill-opacity:1.00"/>
<path d="M 34.39,179.57 L 34.39,220.43 L 69.78,200.00 L 34.39,179.57  z
" style="fill:#d9ff92;fill-opacity:1.00"/>
<path d="M 104.17,179.57 L 68.78,200.00 L 104.17,220.43 L 104.17,179.57  z
" style="fill:#b1ff9e;fill-opacity:1.00"/>
<path d="M 103.67,179.57 L 103.67,220.43 L 139.06,200.00 L 103.67,179.57  z
" style="fill:#99ffa4;fill-opacity:1.00"/>
<path d="M 172.95,179.57 L 172.95,220.43 L 208.35,200.00 L 172.95,179.57  z
" style="fill:#58ffb6;fill-opacity:1.00"/>
<path d="M 242.74,179.57 L 207.41,199.75 L 207.60,240.43 L 242.92,220.25 L 242.74,179.57  z
" style="fill:#30ffc2;fill-opacity:1.00"/>
<path d="M 381.30,179.57 L 345.98,199.75 L 346.16,240.43 L 381.48,220.25 L 381.30,179.57  z
" style="fill:#ffaaa6;fill-opacity:1.00"/>
<path d="M 380.80,179.57 L 380.80,220.43 L 416.19,200.00 L 380.80,179.57  z
" style="fill:#ffb5a6;fill-opacity:1.00"/>
<path d="M 69.53,199.57 L 34.14,220.00 L 69.53,240.43 L 69.53,199.57  z
" style="fill:#cdff96;fill-opacity:1.00"/>
<path d="M 69.03,199.57 L 69.03,240.43 L 104.42,220.00 L 69.03,199.57  z
" style="fill:#b4ff9d;fill-opacity:1.00"/>
<path d="M 138.81,199.57 L 103.42,220.00 L 138.81,240.43 L 138.81,199.57  z
" style="fill:#8cffa8;fill-opacity:1.00"/>
<path d="M 208.10,199.57 L 172.70,220.00 L 208.10,240.43 L 208.10,199.57  z
" style="fill:#4bffba;fill-opacity:1.00"/>
<path d="M 415.94,199.57 L 380.62,219.75 L 380.80,260.43 L 416.12,240.25 L 415.94,199.57  z
" style="fill:#ffbaa6;fill-opacity:1.00"/>
<path d="M 415.44,199.57 L 415.44,240.43 L 450.83,220.00 L 415.44,199.57  z
" style="fill:#ffc5a6;fill-opacity:1.00"/>
<path d="M 34.39,219.57 L 34.39,260.43 L 69.78,240.00 L 34.39,219.57  z
" style="fill:#d0ff95;fill-opacity:1.00"/>
<path d="M 104.17,219.57 L 68.78,240.00 L 104.17,260.43 L 104.17,219.57  z
" style="fill:#a8ffa0;fill-opacity:1.00"/>
<path d="M 103.67,219.57 L 103.67,260.43 L 139.06,240.00 L 103.67,219.57  z
" style="fill:#90ffa7;fill-opacity:1.00"/>
<path d="M 172.95,219.57 L 172.95,260.43 L 208.35,240.00 L 172.95,219.57  z
" style="fill:#4fffb9;fill-opacity:1.00"/>
<path d="M 381.30,219.57 L 345.98,239.75 L 346.16,280.43 L 381.48,260.25 L 381.30,219.57  z
" style="fill:#ffaea6;fill-opacity:1.00"/>
<path d="M 450.58,219.57 L 415.26,239.75 L 415.44,280.43 L 450.76,260.25 L 450.58,219.57  z
" style="fill:#ffcaa6;fill-opacity:1.00"/>
<path d="M 69.53,239.57 L 34.14,260.00 L 69.53,280.43 L 69.53,239.57  z
" style="fill:#c3ff98;fill-opacity:1.00"/>
<path d="M 69.03,239.57 L 69.03,280.43 L 104.42,260.00 L 69.03,239.57  z
" style="fill:#abff9f;fill-opacity:1.00"/>
<path d="M 138.81,239.57 L 103.42,260.00 L 138.81,280.43 L 138.81,239.57  z
" style="fill:#83ffaa;fill-opacity:1.00"/>
<path d="M 208.10,239.57 L 172.70,260.00 L 208.10,280.43 L 208.10,239.57  z
" style="fill:#42ffbc;fill-opacity:1.00"/>
<path d="M 277.03,239.51 L 207.39,279.80 L 207.36,400.12 L 242.49,420.50 L 277.61,400.12 L 277.61,280.12 L 312.27,259.99 L 277.03,239.51  z
" style="fill:#ff8ea6;fill-opacity:1.00"/>
<path d="M 415.94,239.57 L 380.62,259.75 L 380.80,300.43 L 416.12,280.25 L 415.94,239.57  z
" style="fill:#ffbea6;fill-opacity:1.00"/>
<path d="M 34.39,259.57 L 34.39,300.43 L 69.78,280.00 L 34.39,259.57  z
" style="fill:#c7ff97;fill-opacity:1.00"/>
<path d="M 104.17,259.57 L 68.78,280.00 L 104.17,300.43 L 104.17,259.57  z
" style="fill:#9effa3;fill-opacity:1.00"/>
<path d="M 103.67,259.57 L 103.67,300.43 L 139.06,280.00 L 103.67,259.57  z
" style="fill:#86ffa9;fill-opacity:1.00"/>
<path d="M 312.02,259.57 L 276.69,279.75 L 276.88,320.43 L 312.20,300.25 L 312.02,259.57  z
" style="fill:#ff95a6;fill-opacity:1.00"/>
<path d="M 381.30,259.57 L 345.98,279.75 L 346.16,320.43 L 381.48,300.25 L 381.30,259.57  z
" style="fill:#ffb1a6;fill-opacity:1.00"/>
<path d="M 450.58,259.57 L 415.26,279.75 L 415.44,320.43 L 450.76,300.25 L 450.58,259.57  z
" style="fill:#ffcea6;fill-opacity:1.00"/>
<path d="M 69.53,279.57 L 34.14,300.00 L 69.53,320.43 L 69.53,279.57  z
" style="fill:#baff9b;fill-opacity:1.00"/>
<path d="M 69.03,279.57 L 69.03,320.43 L 104.42,300.00 L 69.03,279.57  z
" style="fill:#a2ffa2;fill-opacity:1.00"/>
<path d="M 138.81,279.57 L 103.42,300.00 L 138.81,320.43 L 138.81,279.57  z
" style="fill:#79ffad;fill-opacity:1.00"/>
<path d="M 415.94,279.57 L 380.62,299.75 L 380.80,340.43 L 416.12,320.25 L 415.94,279.57  z
" style="fill:#ffc1a6;fill-opacity:1.00"/>
<path d="M 104.17,299.57 L 68.78,320.00 L 104.17,340.43 L 104.17,299.57  z
" style="fill:#95ffa5;fill-opacity:1.00"/>
<path d="M 103.67,299.57 L 103.67,340.43 L 139.06,320.00 L 103.67,299.57  z
" style="fill:#7dffac;fill-opacity:1.00"/>
<path d="M 312.02,299.57 L 276.69,319.75 L 276.88,360.43 L 312.20,340.25 L 312.02,299.57  z
" style="fill:#ff98a6;fill-opacity:1.00"/>
<path d="M 381.30,299.57 L 345.98,319.75 L 346.16,360.43 L 381.48,340.25 L 381.30,299.57  z
" style="fill:#ffb5a6;fill-opacity:1.00"/>
<path d="M 450.58,299.57 L 415.26,319.75 L 415.44,360.43 L 450.76,340.25 L 450.58,299.57  z
" style="fill:#ffd2a6;fill-opacity:1.00"/>
<path d="M 346.66,319.57 L 311.33,339.75 L 311.52,380.43 L 346.84,360.25 L 346.66,319.57  z
" style="fill:#ffa9a6;fill-opacity:1.00"/>
<path d="M 415.94,319.57 L 380.62,339.75 L 380.80,380.43 L 416.12,360.25 L 415.94,319.57  z
" style="fill:#ffc5a6;fill-opacity:1.00"/>
<path d="M 312.02,339.57 L 276.69,359.75 L 276.88,400.43 L 312.20,380.25 L 312.02,339.57  z
" style="fill:#ff9ca6;fill-opacity:1.00"/>
<path d="M 381.30,339.57 L 345.98,359.75 L 346.16,400.43 L 381.48,380.25 L 381.30,339.57  z
" style="fill:#ffb9a6;fill-opacity:1.00"/>
<path d="M 450.58,339.57 L 415.26,359.75 L 415.44,400.43 L 450.76,380.25 L 450.58,339.57  z
" style="fill:#ffd5a6;fill-opacity:1.00"/>
<path d="M 346.66,359.57 L 311.33,379.75 L 311.52,420.43 L 346.84,400.25 L 346.66,359.57  z
" style="fill:#ffaca6;fill-opacity:1.00"/>
<path d="M 415.94,359.57 L 380.62,379.75 L 380.80,420.43 L 416.12,400.25 L 415.94,359.57  z
" style="fill:#ffc9a6;fill-opacity:1.00"/>
<path d="M 312.02,379.57 L 276.69,399.75 L 276.88,440.43 L 312.20,420.25 L 312.02,379.57  z
" style="fill:#ffa0a6;fill-opacity:1.00"/>
<path d="M 381.30,379.57 L 345.98,399.75 L 346.16,440.43 L 381.48,420.25 L 381.30,379.57  z
" style="fill:#ffbca6;fill-opacity:1.00"/>
<path d="M 277.38,399.57 L 241.99,420.00 L 277.38,440.43 L 277.38,399.57  z
" style="fill:#ff95a6;fill-opacity:1.00"/>
<path d="M 346.66,399.57 L 311.33,419.75 L 311.52,460.43 L 346.84,440.25 L 346.66,399.57  z
" style="fill:#ffb0a6;fill-opacity:1.00"/>
<path d="M 312.02,419.57 L 276.63,440.00 L 312.02,460.43 L 312.02,419.57  z
" style="fill:#ffa3a6;fill-opacity:1.00"/>
</g>
</g></svg>
