<svg id="Hexels SVG Export" xmlns="http://www.w3.org/2000/svg" version="1.1" xmlns:xlink="http://www.w3.org/1999/xlink" viewBox="0 -0 277 320" xml:space="preserve">
<g id="Root" transform="matrix(1.000, 0.000, 0.000, 1.000, 0.000, -0.000)">
<g id="Layer 1" transform="matrix(1.000, 0.000, 0.000, 1.000, 0.000, -0.000)">
<path d="M 127.51,20.09 L 121.13,9.51 L 86.24,29.66 L 92.21,40.47 L 115.72,40.43 L 127.51,20.09  z
" style="fill:#f41885;fill-opacity:1.00"/>
<path d="M 138.56,-0.50 L 120.81,9.75 L 126.85,20.47 L 150.28,20.47 L 156.32,9.76 L 138.56,-0.50  z
" style="fill:#ff187c;fill-opacity:1.00"/>
<path d="M 190.88,29.65 L 156.00,9.51 L 149.62,20.09 L 161.41,40.44 L 184.92,40.47 L 190.88,29.65  z
" style="fill:#f41884;fill-opacity:1.00"/>
<path d="M 126.77,19.57 L 114.97,40.00 L 126.77,60.43 L 150.36,60.43 L 162.16,40.00 L 150.36,19.57 L 126.77,19.57  z
" style="fill:#e7188f;fill-opacity:1.00"/>
<path d="M 92.87,40.09 L 86.48,29.51 L 51.60,49.66 L 57.57,60.47 L 81.08,60.43 L 92.87,40.09  z
" style="fill:#e71890;fill-opacity:1.00"/>
<path d="M 225.53,49.65 L 190.64,29.51 L 184.26,40.09 L 196.05,60.44 L 219.56,60.47 L 225.53,49.65  z
" style="fill:#e8188f;fill-opacity:1.00"/>
<path d="M 92.13,39.57 L 80.33,60.00 L 92.13,80.43 L 115.72,80.43 L 127.52,60.00 L 115.72,39.57 L 92.13,39.57  z
" style="fill:#da189a;fill-opacity:1.00"/>
<path d="M 161.41,39.57 L 149.61,60.00 L 161.41,80.43 L 185.00,80.43 L 196.80,60.00 L 185.00,39.57 L 161.41,39.57  z
" style="fill:#db189a;fill-opacity:1.00"/>
<path d="M 58.23,60.09 L 51.84,49.51 L 16.96,69.66 L 22.93,80.47 L 46.44,80.43 L 58.23,60.09  z
" style="fill:#da189b;fill-opacity:1.00"/>
<path d="M 260.17,69.65 L 225.28,49.51 L 218.90,60.09 L 230.69,80.44 L 254.20,80.47 L 260.17,69.65  z
" style="fill:#db179a;fill-opacity:1.00"/>
<path d="M 57.48,59.57 L 45.69,80.00 L 57.49,100.43 L 81.08,100.43 L 92.88,80.00 L 81.08,59.57 L 57.48,59.57  z
" style="fill:#cd18a6;fill-opacity:1.00"/>
<path d="M 126.77,59.57 L 114.97,80.00 L 126.77,100.43 L 150.36,100.43 L 162.16,80.00 L 150.36,59.57 L 126.77,59.57  z
" style="fill:#ce18a5;fill-opacity:1.00"/>
<path d="M 196.05,59.57 L 184.25,80.00 L 196.05,100.43 L 219.64,100.43 L 231.44,80.00 L 219.64,59.57 L 196.05,59.57  z
" style="fill:#cf18a5;fill-opacity:1.00"/>
<path d="M 23.58,80.09 L 17.32,69.50 L -0.43,79.75 L -0.43,100.25 L 11.87,100.38 L 23.58,80.09  z
" style="fill:#cd18a6;fill-opacity:1.00"/>
<path d="M 277.56,79.75 L 259.80,69.50 L 253.54,80.09 L 265.26,100.38 L 277.56,100.26 L 277.56,79.75  z
" style="fill:#cf18a4;fill-opacity:1.00"/>
<path d="M 22.84,79.57 L 11.05,100.00 L 22.85,120.43 L 46.44,120.43 L 58.23,100.00 L 46.44,79.57 L 22.84,79.57  z
" style="fill:#c018b1;fill-opacity:1.00"/>
<path d="M 92.13,79.57 L 80.33,100.00 L 92.13,120.43 L 115.72,120.43 L 127.52,100.00 L 115.72,79.57 L 92.13,79.57  z
" style="fill:#c118b0;fill-opacity:1.00"/>
<path d="M 161.41,79.57 L 149.61,100.00 L 161.41,120.43 L 185.00,120.43 L 196.80,100.00 L 185.00,79.57 L 161.41,79.57  z
" style="fill:#c218b0;fill-opacity:1.00"/>
<path d="M 230.69,79.57 L 218.89,100.00 L 230.69,120.43 L 254.29,120.43 L 266.08,100.00 L 254.28,79.57 L 230.69,79.57  z
" style="fill:#c218af;fill-opacity:1.00"/>
<path d="M -0.48,99.86 L -0.48,140.14 L 11.87,140.38 L 23.59,120.00 L 11.87,99.62 L -0.48,99.86  z
" style="fill:#b418bc;fill-opacity:1.00"/>
<path d="M 57.48,99.57 L 45.69,120.00 L 57.49,140.43 L 81.08,140.43 L 92.88,120.00 L 81.08,99.57 L 57.48,99.57  z
" style="fill:#b418bb;fill-opacity:1.00"/>
<path d="M 126.77,99.57 L 114.97,120.00 L 126.77,140.43 L 150.36,140.43 L 162.16,120.00 L 150.36,99.57 L 126.77,99.57  z
" style="fill:#b518bb;fill-opacity:1.00"/>
<path d="M 196.05,99.57 L 184.25,120.00 L 196.05,140.43 L 219.64,140.43 L 231.44,120.00 L 219.64,99.57 L 196.05,99.57  z
" style="fill:#b518ba;fill-opacity:1.00"/>
<path d="M 265.25,99.62 L 253.53,120.00 L 265.26,140.38 L 277.61,140.14 L 277.61,99.85 L 265.25,99.62  z
" style="fill:#b618ba;fill-opacity:1.00"/>
<path d="M 22.84,119.57 L 11.05,140.00 L 22.85,160.43 L 46.44,160.43 L 58.23,140.00 L 46.44,119.57 L 22.84,119.57  z
" style="fill:#a718c6;fill-opacity:1.00"/>
<path d="M 92.13,119.57 L 80.33,140.00 L 92.13,160.43 L 115.72,160.43 L 127.52,140.00 L 115.72,119.57 L 92.13,119.57  z
" style="fill:#a818c6;fill-opacity:1.00"/>
<path d="M 161.41,119.57 L 149.61,140.00 L 161.41,160.43 L 185.00,160.43 L 196.80,140.00 L 185.00,119.57 L 161.41,119.57  z
" style="fill:#a818c5;fill-opacity:1.00"/>
<path d="M 230.69,119.57 L 218.89,140.00 L 230.69,160.43 L 254.29,160.43 L 266.08,140.00 L 254.28,119.57 L 230.69,119.57  z
" style="fill:#a918c5;fill-opacity:1.00"/>
<path d="M -0.48,139.86 L -0.48,180.14 L 11.87,180.38 L 23.59,160.00 L 11.87,139.62 L -0.48,139.86  z
" style="fill:#9a18d1;fill-opacity:1.00"/>
<path d="M 57.48,139.57 L 45.69,160.00 L 57.49,180.43 L 81.08,180.43 L 92.88,160.00 L 81.08,139.57 L 57.48,139.57  z
" style="fill:#9b18d1;fill-opacity:1.00"/>
<path d="M 126.77,139.57 L 114.97,160.00 L 126.77,180.43 L 150.36,180.43 L 162.16,160.00 L 150.36,139.57 L 126.77,139.57  z
" style="fill:#9b18d1;fill-opacity:1.00"/>
<path d="M 196.05,139.57 L 184.25,160.00 L 196.05,180.43 L 219.64,180.43 L 231.44,160.00 L 219.64,139.57 L 196.05,139.57  z
" style="fill:#9c18d0;fill-opacity:1.00"/>
<path d="M 265.25,139.62 L 253.53,160.00 L 265.26,180.38 L 277.61,180.14 L 277.61,139.85 L 265.25,139.62  z
" style="fill:#9c18d0;fill-opacity:1.00"/>
<path d="M 22.84,159.57 L 11.05,180.00 L 22.85,200.43 L 46.44,200.43 L 58.23,180.00 L 46.44,159.57 L 22.84,159.57  z
" style="fill:#8e18dc;fill-opacity:1.00"/>
<path d="M 92.13,159.57 L 80.33,180.00 L 92.13,200.43 L 115.72,200.43 L 127.52,180.00 L 115.72,159.57 L 92.13,159.57  z
" style="fill:#8e18dc;fill-opacity:1.00"/>
<path d="M 161.41,159.57 L 149.61,180.00 L 161.41,200.43 L 185.00,200.43 L 196.80,180.00 L 185.00,159.57 L 161.41,159.57  z
" style="fill:#8f18db;fill-opacity:1.00"/>
<path d="M 230.69,159.57 L 218.89,180.00 L 230.69,200.43 L 254.29,200.43 L 266.08,180.00 L 254.28,159.57 L 230.69,159.57  z
" style="fill:#8f18db;fill-opacity:1.00"/>
<path d="M -0.48,179.86 L -0.48,220.14 L 11.87,220.38 L 23.59,200.00 L 11.87,179.62 L -0.48,179.86  z
" style="fill:#8118e7;fill-opacity:1.00"/>
<path d="M 57.48,179.57 L 45.69,200.00 L 57.49,220.43 L 81.08,220.43 L 92.88,200.00 L 81.08,179.57 L 57.48,179.57  z
" style="fill:#8118e7;fill-opacity:1.00"/>
<path d="M 126.77,179.57 L 114.97,200.00 L 126.77,220.43 L 150.36,220.43 L 162.16,200.00 L 150.36,179.57 L 126.77,179.57  z
" style="fill:#8218e6;fill-opacity:1.00"/>
<path d="M 196.05,179.57 L 184.25,200.00 L 196.05,220.43 L 219.64,220.43 L 231.44,200.00 L 219.64,179.57 L 196.05,179.57  z
" style="fill:#8218e6;fill-opacity:1.00"/>
<path d="M 265.25,179.62 L 253.53,200.00 L 265.26,220.38 L 277.61,220.14 L 277.61,179.85 L 265.25,179.62  z
" style="fill:#8318e5;fill-opacity:1.00"/>
<path d="M 22.84,199.57 L 11.05,220.00 L 22.85,240.43 L 46.44,240.43 L 58.23,220.00 L 46.44,199.57 L 22.84,199.57  z
" style="fill:#7418f2;fill-opacity:1.00"/>
<path d="M 92.13,199.57 L 80.33,220.00 L 92.13,240.43 L 115.72,240.43 L 127.52,220.00 L 115.72,199.57 L 92.13,199.57  z
" style="fill:#7518f1;fill-opacity:1.00"/>
<path d="M 161.41,199.57 L 149.61,220.00 L 161.41,240.43 L 185.00,240.43 L 196.80,220.00 L 185.00,199.57 L 161.41,199.57  z
" style="fill:#7518f1;fill-opacity:1.00"/>
<path d="M 230.69,199.57 L 218.89,220.00 L 230.69,240.43 L 254.29,240.43 L 266.08,220.00 L 254.28,199.57 L 230.69,199.57  z
" style="fill:#7618f0;fill-opacity:1.00"/>
<path d="M -0.43,219.75 L -0.29,240.41 L 138.54,320.50 L 260.09,250.41 L 254.20,239.53 L 230.69,239.57 L 219.14,259.57 L 196.55,259.57 L 185.00,239.56 L 161.90,239.56 L 150.35,219.56 L 126.76,219.57 L 115.21,239.57 L 92.62,239.57 L 81.07,219.56 L 57.48,219.57 L 45.93,239.57 L 23.34,239.57 L 11.87,219.62 L -0.43,219.75  z
" style="fill:#6718fd;fill-opacity:1.00"/>
<path d="M 196.05,219.57 L 184.25,240.00 L 196.05,260.43 L 219.64,260.43 L 231.44,240.00 L 219.64,219.57 L 196.05,219.57  z
" style="fill:#6918fb;fill-opacity:1.00"/>
<path d="M 265.25,219.62 L 253.54,239.91 L 259.80,250.50 L 277.56,240.25 L 277.56,219.74 L 265.25,219.62  z
" style="fill:#6a18fb;fill-opacity:1.00"/>
</g>
<g id="Layer 2" transform="matrix(1.000, 0.000, 0.000, 1.000, 0.000, -0.000)">
<path d="M 127.51,100.09 L 121.13,89.51 L 86.24,109.66 L 92.21,120.47 L 115.72,120.43 L 127.51,100.09  z
" style="fill:#66e0ff;fill-opacity:1.00"/>
<path d="M 138.56,79.50 L 120.81,89.75 L 126.85,100.47 L 150.28,100.47 L 156.32,89.76 L 138.56,79.50  z
" style="fill:#66f9ff;fill-opacity:1.00"/>
<path d="M 190.88,109.65 L 156.00,89.51 L 149.62,100.09 L 161.41,120.44 L 184.92,120.47 L 190.88,109.65  z
" style="fill:#66ddff;fill-opacity:1.00"/>
<path d="M 126.77,99.57 L 114.97,120.00 L 126.77,140.43 L 150.36,140.43 L 162.16,120.00 L 150.36,99.57 L 126.77,99.57  z
" style="fill:#66bfff;fill-opacity:1.00"/>
<path d="M 92.87,120.09 L 86.60,109.50 L 68.85,119.75 L 68.85,140.25 L 81.15,140.38 L 92.87,120.09  z
" style="fill:#66c2ff;fill-opacity:1.00"/>
<path d="M 208.28,119.75 L 190.52,109.50 L 184.26,120.09 L 195.98,140.38 L 208.27,140.26 L 208.28,119.75  z
" style="fill:#66bdff;fill-opacity:1.00"/>
<path d="M 92.13,119.57 L 80.33,140.00 L 92.13,160.43 L 115.72,160.43 L 127.52,140.00 L 115.72,119.57 L 92.13,119.57  z
" style="fill:#66a2ff;fill-opacity:1.00"/>
<path d="M 161.41,119.57 L 149.61,140.00 L 161.41,160.43 L 185.00,160.43 L 196.80,140.00 L 185.00,119.57 L 161.41,119.57  z
" style="fill:#669fff;fill-opacity:1.00"/>
<path d="M 68.80,139.86 L 68.80,180.14 L 81.15,180.38 L 92.88,160.00 L 81.15,139.62 L 68.80,139.86  z
" style="fill:#6685ff;fill-opacity:1.00"/>
<path d="M 126.77,139.57 L 114.97,160.00 L 126.77,180.43 L 150.36,180.43 L 162.16,160.00 L 150.36,139.57 L 126.77,139.57  z
" style="fill:#6682ff;fill-opacity:1.00"/>
<path d="M 195.97,139.62 L 184.25,160.00 L 195.97,180.38 L 208.32,180.14 L 208.32,139.85 L 195.97,139.62  z
" style="fill:#667fff;fill-opacity:1.00"/>
<path d="M 92.13,159.57 L 80.33,180.00 L 92.13,200.43 L 115.72,200.43 L 127.52,180.00 L 115.72,159.57 L 92.13,159.57  z
" style="fill:#6664ff;fill-opacity:1.00"/>
<path d="M 161.41,159.57 L 149.61,180.00 L 161.41,200.43 L 185.00,200.43 L 196.80,180.00 L 185.00,159.57 L 161.41,159.57  z
" style="fill:#6662ff;fill-opacity:1.00"/>
<path d="M 68.85,179.75 L 68.85,200.25 L 86.61,210.50 L 92.87,199.91 L 81.15,179.62 L 68.85,179.75  z
" style="fill:#6647ff;fill-opacity:1.00"/>
<path d="M 126.77,179.57 L 114.97,200.00 L 126.77,220.43 L 150.36,220.43 L 162.16,200.00 L 150.36,179.57 L 126.77,179.57  z
" style="fill:#6644ff;fill-opacity:1.00"/>
<path d="M 195.97,179.62 L 184.26,199.91 L 190.52,210.50 L 208.28,200.25 L 208.27,179.74 L 195.97,179.62  z
" style="fill:#6641ff;fill-opacity:1.00"/>
<path d="M 92.21,199.53 L 86.24,210.34 L 121.13,230.49 L 127.51,219.91 L 115.72,199.57 L 92.21,199.53  z
" style="fill:#6627ff;fill-opacity:1.00"/>
<path d="M 161.41,199.57 L 149.62,219.91 L 156.00,230.49 L 190.89,210.34 L 184.92,199.53 L 161.41,199.57  z
" style="fill:#6624ff;fill-opacity:1.00"/>
<path d="M 126.85,219.53 L 120.81,230.25 L 138.57,240.50 L 156.32,230.25 L 150.28,219.53 L 126.85,219.53  z
" style="fill:#6618ff;fill-opacity:1.00"/>
</g>
</g></svg>
